<?xml version="1.0" standalone="no"?><!DOCTYPE svg PUBLIC "-//W3C//DTD SVG 1.1//EN" "http://www.w3.org/Graphics/SVG/1.1/DTD/svg11.dtd"><svg width="100%" height="100%" viewBox="0 0 512 512" version="1.1" xmlns="http://www.w3.org/2000/svg" xmlns:xlink="http://www.w3.org/1999/xlink" xml:space="preserve" style="fill-rule:evenodd;clip-rule:evenodd;stroke-linejoin:round;stroke-miterlimit:1.41421;"><g id="Layer1"><rect x="-5.782" y="-6.281" width="525.273" height="525.516" style="fill:#535353;"/><path d="M198.578,184.775l-16.812,0l0,11.594l16.218,0l0,6.843l-16.218,0l0,22.969l-7.282,0l0,-48.25l24.094,0l0,6.844Z" style="fill:#686868;fill-rule:nonzero;"/><path d="M204.672,201.837c0,-6.791 2.489,-12.625 7.469,-17.5c4.958,-4.875 10.916,-7.312 17.875,-7.312c6.875,0 12.77,2.458 17.687,7.375c4.938,4.916 7.406,10.823 7.406,17.719c0,6.937 -2.479,12.822 -7.437,17.656c-4.979,4.854 -10.99,7.281 -18.031,7.281c-6.23,0 -11.823,-2.156 -16.782,-6.469c-5.458,-4.771 -8.187,-11.021 -8.187,-18.75ZM212.016,201.931c0,5.333 1.791,9.719 5.375,13.156c3.562,3.438 7.677,5.157 12.343,5.157c5.063,0 9.334,-1.75 12.813,-5.25c3.479,-3.542 5.219,-7.855 5.219,-12.938c0,-5.146 -1.719,-9.458 -5.157,-12.937c-3.416,-3.5 -7.645,-5.25 -12.687,-5.25c-5.021,0 -9.261,1.75 -12.719,5.25c-3.458,3.458 -5.187,7.729 -5.187,12.812Z" style="fill:#686868;fill-rule:nonzero;"/><path d="M275.859,184.775l0,41.406l-7.281,0l0,-41.406l-11.094,0l0,-6.844l29.438,0l0,6.844l-11.063,0Z" style="fill:#686868;fill-rule:nonzero;"/><path d="M289.484,201.837c0,-6.791 2.49,-12.625 7.469,-17.5c4.958,-4.875 10.917,-7.312 17.875,-7.312c6.875,0 12.771,2.458 17.688,7.375c4.937,4.916 7.406,10.823 7.406,17.719c0,6.937 -2.479,12.822 -7.438,17.656c-4.979,4.854 -10.989,7.281 -18.031,7.281c-6.229,0 -11.823,-2.156 -16.781,-6.469c-5.458,-4.771 -8.188,-11.021 -8.188,-18.75ZM296.828,201.931c0,5.333 1.792,9.719 5.375,13.156c3.563,3.438 7.677,5.157 12.344,5.157c5.062,0 9.333,-1.75 12.812,-5.25c3.48,-3.542 5.219,-7.855 5.219,-12.938c0,-5.146 -1.719,-9.458 -5.156,-12.937c-3.417,-3.5 -7.646,-5.25 -12.688,-5.25c-5.02,0 -9.26,1.75 -12.718,5.25c-3.459,3.458 -5.188,7.729 -5.188,12.812Z" style="fill:#686868;fill-rule:nonzero;"/></g></svg>